<svg width="36" height="37" viewBox="0 0 36 37" fill="none" xmlns="http://www.w3.org/2000/svg">
<path d="M2.30325 0.467799C1.80825 0.744236 1.10699 1.31837 0.776985 1.76493L0.137603 2.59424L0.0757272 6.03906C0.0138515 9.03734 0.0551019 9.54768 0.343855 9.84538C0.79761 10.3345 1.62262 10.2919 1.89075 9.80286C1.99387 9.56895 2.097 8.03791 2.097 6.37929V3.35975L2.69513 2.74309L3.29326 2.12642H6.36642C9.60458 2.12642 9.93459 2.04136 9.93459 1.14826C9.93459 0.12757 9.52208 -1.71662e-05 6.24267 -1.71662e-05C3.52014 -1.71662e-05 3.12826 0.0425121 2.30325 0.467799Z" fill="black"/>
<path d="M26.3935 0.233893C25.8779 0.531594 25.8985 1.61608 26.4141 1.91378C26.641 2.0201 28.126 2.12642 29.7348 2.12642H32.6636L33.2617 2.74309L33.8598 3.35976V6.3793C33.8598 8.03792 33.963 9.56895 34.0661 9.80286C34.2105 10.058 34.4992 10.2069 34.8911 10.2069C35.283 10.2069 35.5717 10.058 35.7161 9.80286C36.0049 9.24999 35.9842 3.76378 35.6955 2.74309C35.4067 1.78619 34.2311 0.574123 33.2617 0.233893C32.3954 -0.0638077 26.8679 -0.0638077 26.3935 0.233893Z" fill="black"/>
<path d="M7.56267 6.0391C7.21204 6.18795 6.67579 6.6345 6.36641 6.996C5.83015 7.65519 5.80953 7.78278 5.80953 10.2069C5.80953 12.5673 5.83015 12.7586 6.26328 13.0563C6.86141 13.4816 6.96454 13.4816 7.45955 12.9713C7.81018 12.6098 7.87205 12.2696 7.87205 10.4408C7.87205 8.97358 7.95455 8.27186 8.14018 8.14427C8.26393 8.05921 9.35707 7.93163 10.5533 7.86783C12.6777 7.76151 12.719 7.76151 12.9046 7.18737C13.0696 6.71956 13.0284 6.50692 12.719 6.16668C12.389 5.78393 12.1002 5.7414 10.2646 5.7414C9.00644 5.76266 7.93393 5.86898 7.56267 6.0391Z" fill="black"/>
<path d="M23.3204 6.14541C22.9079 6.48564 22.8666 6.63449 23.0316 7.14483C23.2379 7.7615 23.2585 7.7615 25.4035 7.86782C26.5998 7.93161 27.6929 8.0592 27.8373 8.14426C28.0023 8.27184 28.0848 8.97357 28.0848 10.3983C28.0848 11.7805 28.1673 12.5885 28.3529 12.8437C28.6829 13.3115 29.6936 13.3753 29.9617 12.95C30.0648 12.7799 30.1473 11.5253 30.1473 10.1644C30.1473 7.78276 30.1267 7.65518 29.5904 6.99598C28.7654 5.99656 27.961 5.74138 25.7335 5.74138C24.1454 5.74138 23.7123 5.80518 23.3204 6.14541Z" fill="black"/>
<path d="M0.323221 17.9683C0.0138422 18.4574 0.0138422 18.5425 0.323221 19.0316L0.653224 19.5632H17.9784H35.3036L35.6336 19.0316C35.943 18.5425 35.943 18.4574 35.6336 17.9683L35.3036 17.4367H17.9784H0.653224L0.323221 17.9683Z" fill="black"/>
<path d="M6.05703 23.8586C5.89203 24.0288 5.80953 24.9431 5.80953 26.5592C5.80953 30.4293 6.40766 31.046 10.2027 31.046C12.4921 31.046 13.0284 30.8546 13.0284 30.004C13.0284 29.1747 12.389 28.9196 10.3265 28.9196C9.06831 28.9196 8.28456 28.8345 8.11955 28.6644C7.95455 28.4943 7.87205 27.665 7.87205 26.3466C7.87205 24.7517 7.78955 24.1989 7.54205 23.9437C7.17079 23.5397 6.40766 23.4972 6.05703 23.8586Z" fill="black"/>
<path d="M28.4354 23.9862C28.1673 24.3052 28.0848 24.8155 28.0848 26.3891C28.0848 27.6862 28.0023 28.4943 27.8373 28.6644C27.6723 28.8345 26.8679 28.9196 25.5891 28.9196C23.4647 28.9196 22.9285 29.1322 22.9285 29.9615C22.9285 30.8121 23.5679 31.046 25.7954 31.046C28.2498 31.046 29.0748 30.7483 29.7348 29.6638C30.0854 29.0897 30.1473 28.6006 30.1473 26.538C30.1473 24.9431 30.0648 24.0288 29.8998 23.8586C29.5286 23.4759 28.8067 23.5397 28.4354 23.9862Z" fill="black"/>
<path d="M0.364467 27.1333C-0.151164 27.6437 -0.109914 33.3851 0.426342 34.5546C1.31323 36.5534 2.38574 37 6.30453 37C9.52207 37 9.93457 36.8724 9.93457 35.8517C9.93457 34.9586 9.60457 34.8736 6.36641 34.8736H3.29325L2.69512 34.2569L2.09699 33.6402V30.4718C2.09699 28.2816 2.01449 27.2184 1.84948 27.0483C1.49885 26.6868 0.735721 26.7293 0.364467 27.1333Z" fill="black"/>
<path d="M34.1074 27.0483C33.9424 27.2184 33.8599 28.2816 33.8599 30.4718V33.6402L33.2617 34.2569L32.6636 34.8736H29.7348C28.126 34.8736 26.641 34.9799 26.4141 35.0862C25.9398 35.3626 25.8985 36.2132 26.3523 36.6598C26.6204 36.9362 27.2185 37 29.6523 37C32.973 37 33.6948 36.8086 34.8499 35.6603C35.7574 34.746 35.9224 33.9805 35.9224 30.4718C35.9224 28.0264 35.8605 27.4098 35.5924 27.1333C35.2211 26.7293 34.458 26.6868 34.1074 27.0483Z" fill="black"/>
</svg>
