<svg width="104" height="112" viewBox="0 0 104 112" fill="none" xmlns="http://www.w3.org/2000/svg">
<g filter="url(#filter0_d_26_91)">
<path d="M33.4453 2.76949C22.4351 6.36464 5.80756 23.6663 2.43711 34.9011C-2.73092 52.8769 0.414837 70.6279 10.9756 83.4357L17.0424 90.626L21.0869 82.3122C26.9291 69.7291 36.591 63.887 51.421 63.887C66.251 63.887 75.913 69.7291 81.7551 82.3122L85.7996 90.626L91.8664 83.4357C108.494 63.6623 106.472 34.6764 87.3725 15.5772C72.7672 0.971921 53.668 -3.52202 33.4453 2.76949ZM63.1052 26.138C68.2733 30.6319 68.498 44.1137 63.3299 49.7311C58.836 54.8992 45.3542 55.1239 39.7368 49.9558C34.5688 45.4619 34.3441 31.9801 39.5121 26.3627C44.006 21.1946 57.4878 20.9699 63.1052 26.138Z" fill="black"/>
</g>
<defs>
<filter id="filter0_d_26_91" x="-3.41985" y="0" width="109.968" height="97.4657" filterUnits="userSpaceOnUse" color-interpolation-filters="sRGB">
<feFlood flood-opacity="0" result="BackgroundImageFix"/>
<feColorMatrix in="SourceAlpha" type="matrix" values="0 0 0 0 0 0 0 0 0 0 0 0 0 0 0 0 0 0 127 0" result="hardAlpha"/>
<feOffset dy="3.41985"/>
<feGaussianBlur stdDeviation="1.70992"/>
<feComposite in2="hardAlpha" operator="out"/>
<feColorMatrix type="matrix" values="0 0 0 0 0 0 0 0 0 0 0 0 0 0 0 0 0 0 0.25 0"/>
<feBlend mode="normal" in2="BackgroundImageFix" result="effect1_dropShadow_26_91"/>
<feBlend mode="normal" in="SourceGraphic" in2="effect1_dropShadow_26_91" result="shape"/>
</filter>
</defs>
</svg>
