<svg width="32" height="32" viewBox="0 0 32 32" fill="none" xmlns="http://www.w3.org/2000/svg">
<path d="M11.1417 0.916819C8.35628 1.98865 7.17783 4.77542 8.57055 7.24064C9.21334 8.52684 9.10621 9.59867 8.24915 10.4561C7.28497 11.528 7.28497 12.0639 8.57055 13.0285C9.96326 14.1004 12.8558 19.3524 12.8558 20.7457C12.8558 20.9601 10.2847 22.4607 7.28497 23.9612C1.60698 26.8552 0 28.2486 0 30.6066C0 31.6784 3.96388 32 16.1769 32C32.2467 32 32.2467 32 31.9253 29.5348C31.711 28.1414 30.2112 26.5336 28.1757 25.4618C26.3544 24.4972 23.569 22.9966 22.0692 22.0319C19.3909 20.2098 19.3909 20.2098 21.2121 16.9943C22.1763 15.2794 23.3547 13.7788 23.8904 13.7788C24.9617 13.7788 24.8546 11.8495 23.4619 7.02627C22.6048 3.81077 21.5335 2.52457 18.7481 1.34555C14.5699 -0.369381 14.2485 -0.369381 11.1417 0.916819ZM20.1408 3.70359C21.4264 4.56105 22.4977 6.1688 22.4977 7.13346C22.4977 8.31247 22.1763 8.52684 21.3192 7.66937C20.6764 7.02627 18.1053 6.8119 15.3199 7.13346C11.8916 7.45501 10.1775 7.24064 9.64187 6.1688C7.28497 2.41739 15.427 0.380903 20.1408 3.70359ZM14.8913 9.70586C16.1769 7.66937 20.7836 8.52684 21.2121 10.8849C21.962 14.4219 20.3551 17.959 17.4625 19.4595L14.6771 20.9601L17.5696 21.7104C20.3551 22.3535 21.3192 24.8187 19.2837 26.1049C18.7481 26.4265 18.2124 25.7834 18.2124 24.7115C18.2124 23.4253 17.2482 22.3535 15.9626 22.0319C14.6771 21.7104 14.0343 20.9601 14.3557 20.4242C14.6771 19.8883 14.2485 18.8164 13.3915 18.0662C12.4273 17.3159 11.7845 14.9578 11.7845 12.2783C11.7845 9.06276 12.1059 8.31247 12.8558 9.49149C13.7129 10.7777 14.1414 10.8849 14.8913 9.70586ZM14.5699 24.7115C14.6771 25.8905 14.2485 26.3193 13.2843 25.8905C11.4631 25.2474 11.2488 22.0319 13.0701 22.5679C13.7129 22.7822 14.3557 23.7469 14.5699 24.7115ZM11.9988 26.8552C13.4986 28.3558 14.4628 28.7845 14.7842 27.927C14.9985 27.1767 15.9626 26.6408 16.8197 26.6408C18.2124 26.6408 18.2124 26.8552 17.034 28.4629C15.6412 30.0707 15.7484 30.0707 18.2124 28.7845C19.7123 28.0342 21.4264 26.748 21.962 25.9977C23.6761 23.6397 27.8543 25.3546 27.8543 28.3558C27.8543 30.9282 27.7471 30.9282 16.0698 30.9282C5.35659 30.9282 4.28527 30.7138 4.28527 28.9989C4.28527 27.3911 6.74931 25.2474 9.4276 24.6043C9.53473 24.4972 10.7132 25.569 11.9988 26.8552ZM2.78543 30.6066C1.71411 31.6784 0.749923 30.0707 1.71411 28.6773C2.3569 27.4983 2.57116 27.4983 2.99969 28.6773C3.21396 29.4276 3.10682 30.2851 2.78543 30.6066ZM31.0682 29.9635C31.0682 30.4994 30.6397 30.9282 29.9969 30.9282C29.4613 30.9282 28.9256 30.1779 28.9256 29.2132C28.9256 28.3558 29.4613 27.927 29.9969 28.2486C30.6397 28.5701 31.0682 29.3204 31.0682 29.9635Z" fill="black"/>
<path d="M17.7839 11.0992C18.2124 11.9566 18.5338 12.7069 18.748 12.7069C18.9623 12.7069 19.2837 11.9566 19.7122 11.0992C20.0336 10.1345 19.7122 9.49141 18.748 9.49141C17.7839 9.49141 17.4625 10.1345 17.7839 11.0992Z" fill="black"/>
<path d="M13.6058 14.5289C11.9988 16.0295 12.963 16.9941 16.0698 16.9941C18.2124 16.9941 19.2837 16.4582 19.2837 15.3864C19.2837 13.7786 14.9985 13.1355 13.6058 14.5289ZM17.891 15.4936C17.5696 15.8151 16.6054 15.9223 15.8555 15.6008C14.9985 15.2792 15.3199 14.9577 16.4983 14.9577C17.6768 14.8505 18.3196 15.172 17.891 15.4936Z" fill="black"/>
</svg>
