<svg width="30" height="34" viewBox="0 0 30 34" fill="none" xmlns="http://www.w3.org/2000/svg">
<path d="M7.2061 1.02605C6.8131 1.68105 9.43309 1.94305 12.9701 1.55005C20.83 0.764054 26.07 3.51504 26.07 8.49302C26.07 12.292 25.153 12.554 21.223 9.80302C19.2581 8.36203 18.3411 8.23102 17.9481 9.41002C17.6861 10.196 14.0181 11.113 9.95709 11.506C3.27611 12.03 2.49012 11.768 2.35912 9.67202C2.35912 7.31403 2.22812 7.31403 1.18012 9.80302C-0.784871 14.257 -0.260873 17.27 2.49012 17.925C5.37211 18.711 5.50311 18.973 5.63411 27.488L5.7651 33.3829L14.6731 33.7759C24.498 34.1689 26.332 32.7279 23.843 26.309C22.271 21.855 22.926 19.759 26.856 18.318C28.559 17.663 30 16.222 30 15.174C30 11.637 25.022 1.68105 22.795 0.764054C19.6511 -0.414943 7.9921 -0.152945 7.2061 1.02605ZM22.271 11.768C25.415 13.471 25.546 17.27 22.533 20.021C16.1141 25.785 5.24111 22.903 5.11011 15.305C5.11011 13.602 6.1581 13.078 10.0881 13.078C12.7081 13.078 15.8521 12.423 16.9001 11.768C19.3891 10.196 19.1271 10.196 22.271 11.768ZM3.80011 14.388C3.80011 15.043 3.27611 15.698 2.49012 15.698C1.83512 15.698 1.18012 15.043 1.18012 14.388C1.18012 13.602 1.83512 13.078 2.49012 13.078C3.27611 13.078 3.80011 13.602 3.80011 14.388ZM28.69 14.257C28.69 15.043 28.166 15.96 27.38 16.353C26.725 16.746 26.07 16.222 26.07 15.174C26.07 13.995 26.725 13.078 27.38 13.078C28.166 13.078 28.69 13.602 28.69 14.257ZM12.1841 25.523C12.5771 26.571 13.7561 27.488 14.9351 27.488C16.1141 27.488 17.2931 26.571 17.6861 25.523C18.3411 23.82 22.14 22.641 22.14 24.082C22.14 24.344 22.533 25.654 23.057 26.964C23.712 28.6669 23.45 29.0599 21.878 28.405C20.4371 27.881 19.5201 28.536 19.1271 30.2389C18.2101 33.9069 10.3501 33.7759 10.3501 30.1079C10.3501 28.405 9.69509 27.75 8.38509 28.274C6.1581 29.1909 6.0271 28.6669 7.2061 25.654C8.2541 23.034 11.1361 22.903 12.1841 25.523ZM9.04009 31.4179C9.04009 32.0729 8.51609 32.7279 7.7301 32.7279C7.0751 32.7279 6.4201 32.0729 6.4201 31.4179C6.4201 30.6319 7.0751 30.1079 7.7301 30.1079C8.51609 30.1079 9.04009 30.6319 9.04009 31.4179ZM23.45 30.6319C23.45 31.0249 22.926 31.6799 22.14 32.0729C21.485 32.4659 20.83 32.2039 20.83 31.5489C20.83 30.7629 21.485 30.1079 22.14 30.1079C22.926 30.1079 23.45 30.3699 23.45 30.6319Z" fill="black"/>
<path d="M14.0181 29.7149C14.9351 30.1079 16.1141 29.9769 16.5071 29.5839C17.0311 29.1909 16.2451 28.7979 14.8041 28.9289C13.3631 28.9289 12.9701 29.3219 14.0181 29.7149Z" fill="black"/>
</svg>
