<svg width="160" height="164" viewBox="0 0 160 164" fill="none" xmlns="http://www.w3.org/2000/svg">
<path d="M10.209 2.07359C8.01489 3.29888 4.90661 5.84371 3.44389 7.82302L0.609875 11.4989L0.335615 26.7679C0.0613555 40.0575 0.244195 42.3196 1.52407 43.6391C3.53531 45.8069 7.19211 45.6184 8.38057 43.4506C8.83767 42.4138 9.29477 35.6276 9.29477 28.2759V14.892L11.946 12.1587L14.5971 9.42532H28.2187C42.5716 9.42532 44.0344 9.04831 44.0344 5.08969C44.0344 0.565548 42.206 3.05176e-05 27.6702 3.05176e-05C15.6027 3.05176e-05 13.8658 0.188538 10.209 2.07359Z" fill="black"/>
<path d="M116.987 1.03682C114.702 2.35636 114.793 7.16326 117.079 8.48279C118.085 8.95406 124.667 9.42533 131.798 9.42533H144.779L147.43 12.1587L150.082 14.892V28.2759C150.082 35.6276 150.539 42.4138 150.996 43.4506C151.636 44.5817 152.916 45.2414 154.653 45.2414C156.389 45.2414 157.669 44.5817 158.309 43.4506C159.589 41 159.498 16.6828 158.218 12.1587C156.938 7.91728 151.727 2.54486 147.43 1.03682C143.591 -0.282723 119.09 -0.282723 116.987 1.03682Z" fill="black"/>
<path d="M33.5211 26.7678C31.9669 27.4276 29.59 29.4069 28.2187 31.0092C25.8418 33.931 25.7504 34.4965 25.7504 45.2414C25.7504 55.7034 25.8418 56.5517 27.7616 57.8712C30.4128 59.7563 30.8699 59.7563 33.064 57.4942C34.6181 55.8919 34.8924 54.3839 34.8924 46.2781C34.8924 39.7747 35.2581 36.6643 36.0808 36.0988C36.6294 35.7218 41.4746 35.1563 46.777 34.8735C56.1932 34.4023 56.3761 34.4023 57.1988 31.8574C57.9302 29.7839 57.7474 28.8414 56.3761 27.3333C54.9133 25.6368 53.6335 25.4482 45.4971 25.4482C39.9205 25.5425 35.1666 26.0138 33.5211 26.7678Z" fill="black"/>
<path d="M103.366 27.2391C101.538 28.7471 101.355 29.4069 102.086 31.669C103 34.4023 103.092 34.4023 112.599 34.8736C117.902 35.1563 122.747 35.7218 123.387 36.0988C124.118 36.6644 124.484 39.7747 124.484 46.0897C124.484 52.2161 124.85 55.7977 125.672 56.9287C127.135 59.0023 131.615 59.2851 132.803 57.4C133.26 56.646 133.626 51.0851 133.626 45.0529C133.626 34.4965 133.535 33.931 131.158 31.0092C127.501 26.5793 123.935 25.4483 114.062 25.4483C107.023 25.4483 105.103 25.731 103.366 27.2391Z" fill="black"/>
<path d="M1.43265 79.6436C0.0613503 81.8114 0.0613503 82.1884 1.43265 84.3563L2.89537 86.7126H79.6881H156.481L157.944 84.3563C159.315 82.1884 159.315 81.8114 157.944 79.6436L156.481 77.2873H79.6881H2.89537L1.43265 79.6436Z" fill="black"/>
<path d="M26.8474 105.752C26.1161 106.506 25.7504 110.559 25.7504 117.722C25.7504 134.876 28.4016 137.609 45.2228 137.609C55.3705 137.609 57.7474 136.761 57.7474 132.991C57.7474 129.315 54.9133 128.184 45.7714 128.184C40.1947 128.184 36.7208 127.807 35.9894 127.053C35.2581 126.299 34.8924 122.623 34.8924 116.779C34.8924 109.71 34.5267 107.26 33.4297 106.129C31.7841 104.338 28.4016 104.149 26.8474 105.752Z" fill="black"/>
<path d="M126.038 106.317C124.85 107.731 124.484 109.993 124.484 116.968C124.484 122.717 124.118 126.299 123.387 127.053C122.656 127.807 119.09 128.184 113.422 128.184C104.006 128.184 101.629 129.126 101.629 132.802C101.629 136.572 104.463 137.609 114.336 137.609C125.215 137.609 128.872 136.29 131.798 131.483C133.352 128.938 133.626 126.77 133.626 117.628C133.626 110.559 133.26 106.506 132.529 105.752C130.883 104.055 127.684 104.338 126.038 106.317Z" fill="black"/>
<path d="M1.61547 120.267C-0.670025 122.529 -0.487185 147.977 1.88973 153.161C5.82079 162.021 10.5746 164 27.9444 164C42.2059 164 44.0343 163.434 44.0343 158.91C44.0343 154.952 42.5716 154.575 28.2187 154.575H14.5971L11.9459 151.841L9.29475 149.108V135.064C9.29475 125.356 8.92907 120.644 8.19771 119.89C6.64357 118.287 3.26103 118.476 1.61547 120.267Z" fill="black"/>
<path d="M151.179 119.89C150.447 120.644 150.082 125.356 150.082 135.064V149.108L147.43 151.841L144.779 154.575H131.798C124.667 154.575 118.085 155.046 117.079 155.517C114.976 156.743 114.793 160.513 116.805 162.492C117.993 163.717 120.644 164 131.432 164C146.15 164 149.35 163.152 154.47 158.062C158.492 154.009 159.224 150.616 159.224 135.064C159.224 124.225 158.949 121.492 157.761 120.267C156.115 118.476 152.733 118.287 151.179 119.89Z" fill="black"/>
</svg>
