<svg width="25" height="35" viewBox="0 0 25 35" fill="none" xmlns="http://www.w3.org/2000/svg">
<path d="M8.15217 3.91304C6.52173 5.97826 4.78261 9.45652 4.13043 11.5217C3.26087 14.8913 3.47826 15.7609 6.52173 19.6739L9.99999 23.913L6.63043 25.1087C3.47826 26.1956 0 30.7609 0 33.6956C0 34.3478 4.45652 34.7826 12.5 34.7826C19.5652 34.7826 25 34.3478 25 33.8043C25 30.4348 22.3913 26.8478 19.0217 25.4348L15.2174 23.913L17.6087 20.6522C18.913 18.8043 20.4348 17.3913 20.9782 17.3913C21.5217 17.3913 21.6304 15.3261 21.1956 12.8261C20.3261 8.15217 14.8913 3.86624e-06 12.5 3.86624e-06C11.7391 3.86624e-06 9.7826 1.73913 8.15217 3.91304ZM13.5869 2.17391C13.913 2.71739 13.4782 3.26087 12.5 3.26087C11.5217 3.26087 11.0869 2.71739 11.413 2.17391C11.7391 1.52174 12.2826 1.08696 12.5 1.08696C12.7174 1.08696 13.2609 1.52174 13.5869 2.17391ZM17.3913 6.52174C18.5869 7.71739 19.5652 9.13043 19.5652 9.7826C19.5652 10.3261 18.5869 10.8696 17.3913 10.8696C16.0869 10.8696 15.2174 10.1087 15.2174 8.91304C15.1087 7.17391 15.1087 7.17391 14.0217 8.91304C13.3696 10.2174 11.6304 10.8696 9.23912 10.8696C4.8913 10.8696 4.45652 9.67391 7.82608 6.52174C10.8696 3.80435 14.5652 3.69565 17.3913 6.52174ZM16.413 11.9565C18.913 13.3696 19.1304 17.7174 16.7391 20C14.5652 22.2826 10.9783 22.1739 8.47825 19.8913C6.08695 17.7174 5.86956 13.0435 8.15217 13.0435C9.02173 13.0435 9.7826 13.4783 9.7826 14.1304C9.7826 14.6739 10.3261 15.2174 11.0869 15.2174C11.7391 15.2174 11.9565 14.8913 11.6304 14.4565C10.9783 13.8043 12.7174 10.8696 13.8043 10.8696C14.0217 10.8696 15.2174 11.413 16.413 11.9565ZM14.4565 24.3478C15.2174 26.3043 14.3478 27.1739 11.7391 27.1739C9.56521 27.1739 9.45651 27.0652 10.4348 24.5652C11.3043 22.3913 13.6956 22.2826 14.4565 24.3478ZM9.23912 27.1739C10.1087 28.5869 14.4565 28.5869 15.9782 27.0652C17.5 25.5435 21.1956 27.3913 22.8261 30.4348C24.1304 32.8261 22.0652 34.8913 20.6522 32.6087C20.1087 31.6304 19.6739 31.6304 19.1304 32.5C18.0435 34.2391 6.84782 34.0217 6.19565 32.2826C5.76087 31.3043 5.32608 31.413 4.45652 32.6087C3.69565 33.8043 3.04348 33.913 2.17391 33.0435C1.41304 32.2826 1.73913 31.0869 3.26087 29.0217C5.65217 25.9782 8.04347 25.2174 9.23912 27.1739Z" fill="black"/>
<path d="M11.1957 18.5869C12.7174 19.4564 13.587 19.4564 14.4566 18.5869C15.3261 17.7173 14.7827 17.3912 12.5001 17.3912C9.67397 17.4999 9.45658 17.6086 11.1957 18.5869Z" fill="black"/>
</svg>
