<svg width="22" height="36" viewBox="0 0 22 36" fill="none" xmlns="http://www.w3.org/2000/svg">
<path d="M3.76195 3.07379C-1.67927 7.81742 -1.26072 13.3982 5.29666 23.025L10.5984 30.6985L13.8073 26.792C15.621 24.6992 18.4114 20.2346 19.9461 17.1652C23.2946 10.6078 22.3179 5.86416 16.8767 2.09716C12.4121 -0.972255 8.22655 -0.693218 3.76195 3.07379ZM17.5743 5.16657C21.0623 8.23598 20.5042 14.0958 15.7606 20.5136C13.3887 23.7226 11.296 26.3734 10.8774 26.3734C10.4588 26.3734 8.36607 23.7226 5.99425 20.5136C1.25062 14.0958 0.692542 8.23598 4.32003 5.16657C8.92414 1.12053 12.6911 1.12053 17.5743 5.16657Z" fill="black"/>
<path d="M6.83142 7.67755C4.18057 10.1889 4.18057 10.4679 5.99431 13.9559C8.50565 18.4205 17.1558 16.6067 17.1558 11.5841C17.1558 9.21225 13.2493 5.44525 10.8775 5.44525C9.90083 5.44525 7.94757 6.42188 6.83142 7.67755ZM14.0864 11.5841C13.8074 13.3978 12.6912 14.514 10.8775 14.514C7.66853 14.514 6.27335 9.77033 8.9242 8.23562C11.7146 6.42188 14.5049 8.37514 14.0864 11.5841Z" fill="black"/>
<path d="M1.94823 27.6289C0.553045 28.6055 1.39016 29.7217 5.4362 32.3725L10.7379 36L16.0396 33.0701C20.5042 30.5588 23.0156 27.7684 20.7833 27.7684C20.5042 27.7684 18.9695 27.3498 17.5743 26.9313C15.6211 26.3732 15.4815 26.3732 17.0162 27.4894C18.551 28.6055 18.1324 29.3031 15.2025 31.2564C12.1331 33.3491 10.8774 33.4887 7.94753 32.0935C5.57572 31.1168 4.59909 29.7217 5.15716 28.466C5.99427 26.0942 4.87812 25.8151 1.94823 27.6289Z" fill="black"/>
</svg>
