<svg width="27" height="28" viewBox="0 0 27 28" fill="none" xmlns="http://www.w3.org/2000/svg">
<path d="M4.78147 1.10439C3.73747 3.38376 5.19906 5.57195 7.39145 5.0249C9.27064 4.6602 10.5234 5.93665 12.0894 10.0395C12.7158 11.863 11.0454 12.3189 10.3146 10.4954C10.0014 9.94834 9.68824 12.1365 9.68824 15.4188C9.58384 18.7923 9.27064 22.8951 8.85305 24.5363C8.12225 27.3627 8.01785 27.2715 7.39145 22.1657L6.76506 16.6953L6.66066 21.9834C6.34746 30.645 4.36387 27.0892 4.36387 17.7894C4.36387 12.9571 3.94627 9.94834 3.42427 10.7689C3.00667 11.4983 2.90228 15.6012 3.21547 19.8864C3.84187 27.1803 3.94627 27.6362 6.34746 27.9097C9.68824 28.3656 10.6278 26.8156 10.6278 20.6158C10.6278 16.3306 10.941 15.51 12.1938 15.8747C13.2378 16.2394 13.551 16.057 13.2378 15.1453C12.9246 14.5071 13.3422 11.9542 14.1774 9.58364C15.0126 7.2131 15.2214 5.29843 14.6994 5.29843C14.1774 5.29843 13.7598 5.93665 13.7598 6.75722C13.7598 8.76306 10.0014 4.66021 9.47944 2.10732C8.95744 -0.0808765 5.61666 -0.810274 4.78147 1.10439ZM8.53985 3.11024C8.53985 3.83964 7.80905 4.38668 6.97385 4.38668C5.40786 4.38668 4.78147 2.47201 6.03426 1.37792C7.07825 0.557346 8.53985 1.56027 8.53985 3.11024Z" fill="black"/>
<path d="M16.8918 1.19539C15.8478 2.28948 15.8478 2.83653 16.9962 4.0218C17.727 4.7512 19.0842 5.29825 20.0238 5.02472C22.6338 4.3865 24.3042 6.84822 24.513 11.6805C24.6174 14.2334 25.1394 16.2392 25.6614 16.2392C27.0186 16.2392 25.557 7.03056 23.7822 5.38942C22.947 4.56885 22.1118 3.11005 21.903 2.10713C21.4854 -0.172233 18.6666 -0.719281 16.8918 1.19539ZM20.2326 3.6571C18.6666 5.02472 17.5182 4.0218 18.3534 2.01596C18.8754 0.830688 19.293 0.648339 20.2326 1.46891C21.1722 2.28948 21.1722 2.83653 20.2326 3.6571Z" fill="black"/>
<path d="M1.33631 6.57464C-0.334078 10.2216 -0.438478 15.5098 1.02311 15.9656C1.64951 16.2392 2.27591 15.9656 2.27591 15.3274C2.27591 14.7804 1.75391 14.598 1.02311 14.9627C0.187919 15.4186 0.0835196 15.1451 0.501118 14.051C0.918715 13.1392 1.23191 11.4981 1.23191 10.3128C1.23191 9.12753 1.96271 7.57756 2.79791 6.75699C3.7375 5.93642 3.9463 5.20702 3.3199 4.84232C2.79791 4.5688 1.85831 5.2982 1.33631 6.57464Z" fill="black"/>
<path d="M5.6166 8.21573C5.8254 9.401 6.4518 10.3127 6.9738 10.3127C7.60019 10.3127 8.12219 9.401 8.33099 8.21573C8.53979 6.84811 8.12219 6.20989 6.9738 6.20989C5.8254 6.20989 5.4078 6.84811 5.6166 8.21573Z" fill="black"/>
<path d="M14.6995 10.4952C13.8643 17.0598 13.9687 21.7097 14.8039 21.7097C15.3258 21.7097 15.8478 23.1685 15.8478 24.992C15.8478 28.0007 16.0566 28.1831 18.771 27.9095C21.0678 27.7272 21.6942 27.1801 21.903 24.6273C22.1118 22.8038 22.8426 21.7097 23.7822 21.7097C24.9306 21.7097 25.1394 21.0714 24.6174 19.248C24.1998 17.8803 23.8866 16.148 23.991 15.3274C23.991 14.598 23.7822 12.9569 23.469 11.6805L22.947 9.40109L22.0074 11.4981C21.4854 12.6834 21.5898 14.5069 22.1118 15.8745C23.5734 19.0656 23.6778 18.9744 18.9798 18.9744C15.0127 18.9744 14.9083 18.8833 15.8478 16.6039C17.205 13.5951 17.205 9.85696 15.8478 9.85696C15.3258 9.85696 14.8039 10.1305 14.6995 10.4952ZM21.381 20.5244C20.0238 20.7067 17.9358 20.7067 16.683 20.5244C15.3258 20.342 16.3698 20.1597 18.9798 20.1597C21.5898 20.1597 22.6338 20.342 21.381 20.5244ZM17.6226 25.9949C17.3094 26.9066 17.1006 26.1772 17.1006 24.4449C17.1006 22.7126 17.3094 21.9832 17.6226 22.8038C17.8314 23.7155 17.8314 25.1743 17.6226 25.9949ZM20.7546 25.9949C20.4414 26.9066 20.2326 26.1772 20.2326 24.4449C20.2326 22.7126 20.4414 21.9832 20.7546 22.8038C20.9634 23.7155 20.9634 25.1743 20.7546 25.9949Z" fill="black"/>
</svg>
