<svg width="26" height="37" viewBox="0 0 26 37" fill="none" xmlns="http://www.w3.org/2000/svg">
<path d="M6.56689 1.51905C4.55853 2.59017 2.2824 5.40187 1.47905 7.67801C-0.663192 13.7031 -0.395411 26.1549 1.74683 27.0921C2.81796 27.4938 3.21963 29.3682 2.95185 32.3138C2.41629 36.8661 2.55018 37 6.83467 37C9.37858 37 10.7175 36.4644 9.91415 35.9289C9.1108 35.3933 8.03968 34.0544 7.63801 32.9833C7.10245 31.3766 6.83467 31.5105 6.83467 33.2511C6.70078 36.4644 4.02297 36.3305 4.02297 33.1172C4.02297 29.1005 7.23634 27.0921 10.5836 29.2344C12.8597 30.7072 13.9309 30.5733 16.3409 29.1005C18.8848 27.4938 19.4204 27.6277 21.027 29.7699C21.9643 31.1088 22.7676 32.9833 22.7676 33.9205C22.7676 35.9289 20.4915 36.3305 19.822 34.4561C19.6881 33.7866 18.617 34.0544 17.6798 35.1255C16.207 36.7322 16.6087 37 20.2237 37C24.3743 37 24.3743 36.8661 23.7049 32.3138C23.3032 29.7699 23.4371 27.6277 24.2404 27.6277C24.9099 27.6277 25.4454 23.2093 25.4454 17.7198C25.4454 9.28469 24.9099 7.14245 22.4998 4.19686C18.7509 -0.0876296 11.3869 -1.29264 6.56689 1.51905ZM21.4287 4.86631C24.5082 7.94579 25.0438 12.8997 22.2321 12.8997C19.2865 12.8997 12.8597 10.2219 11.9225 8.61524C11.253 7.54412 10.1819 7.8119 8.70913 9.28469C3.88908 14.2386 0.27404 9.82026 4.9602 4.59853C8.03968 1.11738 17.8137 1.25127 21.4287 4.86631ZM12.8597 11.5608C13.5292 12.2303 16.4748 13.3014 19.2865 13.837L24.5082 14.9081L19.4204 20.2637C16.4748 23.2093 14.3325 26.4227 14.6003 27.226C14.7342 28.1632 13.9309 28.9666 12.8597 28.9666C11.6547 28.9666 11.253 28.0293 11.6547 26.4227C12.0564 25.0838 11.3869 23.611 10.3158 23.2093C9.24469 22.8076 7.10245 20.6654 5.49576 18.3892L2.68407 14.3725L6.29911 12.4981C10.9853 9.95415 11.253 9.95415 12.8597 11.5608ZM8.44135 24.2804C11.253 26.2888 11.253 26.2888 6.96856 26.2888C2.95185 26.2888 2.68407 26.021 2.68407 21.8704C2.81796 18.3892 2.95185 17.9876 4.15686 19.862C4.82631 21.2009 6.70078 23.0754 8.44135 24.2804ZM24.1065 22.2721C24.1065 25.8871 23.7049 26.2888 19.9559 26.2888H15.9392L19.6881 22.2721C21.6965 20.1298 23.571 18.3892 23.8387 18.2553C23.9726 18.2553 24.1065 19.9959 24.1065 22.2721Z" fill="black"/>
<path d="M16.0731 15.4438C16.0731 16.7827 18.617 18.791 19.4204 18.1216C19.5542 17.8538 19.0187 16.7827 17.9476 15.8454C16.8764 14.9082 16.0731 14.7743 16.0731 15.4438Z" fill="black"/>
<path d="M10.7176 21.2009C10.7176 22.6737 14.4665 22.5398 15.4037 21.067C15.8054 20.2637 14.8682 19.862 13.3954 19.9959C11.9226 20.1298 10.7176 20.6654 10.7176 21.2009Z" fill="black"/>
</svg>
